<svg width="61" height="60" viewBox="0 0 61 60" fill="none"
    xmlns="http://www.w3.org/2000/svg">
    <g clip-path="url(#clip0_26:2276)">
        <path d="M57.7165 47.1834C57.7165 48.5006 57.1932 49.7639 56.2618 50.6954C55.3303 51.6268 54.0671 52.1501 52.7498 52.1501H8.04981C6.73257 52.1501 5.46928 51.6268 4.53785 50.6954C3.60642 49.7639 3.08315 48.5006 3.08315 47.1834V19.8667C3.08315 18.5495 3.60642 17.2862 4.53785 16.3548C5.46928 15.4233 6.73257 14.9001 8.04981 14.9001H17.9831L22.9498 7.45007H37.8498L42.8165 14.9001H52.7498C54.0671 14.9001 55.3303 15.4233 56.2618 16.3548C57.1932 17.2862 57.7165 18.5495 57.7165 19.8667V47.1834Z" stroke="black" stroke-width="4.96667" stroke-linecap="round" stroke-linejoin="round"/>
        <path d="M30.3998 42.2168C35.8859 42.2168 40.3332 37.7695 40.3332 32.2834C40.3332 26.7974 35.8859 22.3501 30.3998 22.3501C24.9138 22.3501 20.4665 26.7974 20.4665 32.2834C20.4665 37.7695 24.9138 42.2168 30.3998 42.2168Z" stroke="black" stroke-width="4.96667" stroke-linecap="round" stroke-linejoin="round"/>
    </g>
    <defs>
        <clipPath id="clip0_26:2276">
            <rect width="59.6" height="59.6" fill="white" transform="translate(0.599884)"/>
        </clipPath>
    </defs>
</svg>
