<svg width="62" height="82" viewBox="0 0 62 82" fill="none"
    xmlns="http://www.w3.org/2000/svg">
    <circle cx="31" cy="40" r="31" fill="#4BBEFF"/>
    <path d="M56.7716 57.1971L2 65.9909V75.2869L56.7716 66.7447V57.1971Z" fill="#141615"/>
    <path d="M43.4556 59.7097C43.4556 59.7097 40.6919 61.4685 39.4355 60.9659C39.4355 60.9659 37.4256 62.222 37.6767 60.7145C37.6767 60.7145 38.1792 60.4632 37.9281 59.9608L41.1943 59.4584L43.4556 59.7097Z" fill="#454545"/>
    <path d="M37.6772 60.7147C37.6772 60.7147 38.1796 60.4634 37.9285 59.961C37.9285 59.961 36.6723 59.7096 36.1697 60.966C36.1697 60.9658 37.1745 60.4634 37.6772 60.7147Z" fill="#FFD15C"/>
    <path d="M49.4856 64.7346C49.4856 64.7346 49.988 63.9808 50.4907 63.9808C50.4907 63.9808 51.4957 65.237 50.2393 66.4934C50.2393 66.2421 50.2393 64.9859 49.4856 64.7346Z" fill="#FFD15C"/>
    <path d="M46.9731 63.7298C46.9731 63.7298 47.4756 62.9761 47.9782 62.9761C47.9782 62.9761 48.9833 64.2322 47.7269 65.4886C47.7269 65.4884 47.7269 63.9809 46.9731 63.7298Z" fill="#FFD15C"/>
    <path d="M42.7019 59.7097C42.7019 59.7097 43.2043 60.2122 43.958 60.2122C43.958 60.2122 44.4604 61.4683 45.4655 61.7196C45.4655 61.7196 46.973 64.7346 47.4754 63.9808C47.4754 63.4784 47.9778 62.9758 48.2291 62.9758C48.2291 62.9758 46.7217 60.4632 45.9679 59.7095C45.9679 59.7095 48.2291 62.222 48.7316 63.2269C48.7316 63.2269 48.7316 64.483 49.7366 64.7343C49.7366 64.7343 50.239 63.9806 50.9928 64.2319C50.9928 64.2319 47.7265 58.4533 43.2041 57.197L40.4404 56.1919V58.4531C40.6918 58.4531 41.6966 59.2069 40.9428 59.4582L40.4404 59.9606L42.7019 59.7097Z" fill="#454545"/>
    <path d="M39.1846 66.2421C39.1846 66.2421 39.687 65.4884 40.1896 65.4884C40.1896 65.4884 41.1947 66.7446 39.6872 68.0009C39.687 68.0009 39.9383 66.7448 39.1846 66.2421Z" fill="#FFD15C"/>
    <path d="M36.4207 65.2371C36.4207 65.2371 36.9231 64.4834 37.4257 64.4834C37.4257 64.4834 38.4308 65.7396 36.9233 66.9959C37.1744 66.9957 37.4257 65.7396 36.4207 65.2371Z" fill="#FFD15C"/>
    <path d="M32.4008 61.2171C32.4008 61.2171 33.4058 61.4684 33.4058 61.7195C33.4058 61.7195 33.9082 62.9756 34.9133 63.2269C34.9133 63.2269 36.1694 66.2419 36.9232 65.4882C36.9232 64.9858 37.4256 64.4831 37.6769 64.7344C37.4256 63.9807 36.9232 62.9756 36.1694 62.2219C36.1694 62.2219 36.6719 62.7243 37.1745 63.478C37.6769 64.2318 37.9283 64.9855 38.4307 65.7393C38.4307 65.9906 38.682 66.493 39.4357 66.493C39.4357 66.493 39.9381 65.7393 40.6919 65.9906C40.6919 65.9906 37.6769 59.9607 33.1545 58.7045L30.642 57.4484V59.7096C30.8933 59.7096 31.8981 60.7146 31.1444 60.7146L30.3906 61.2171H32.4008Z" fill="#454545"/>
    <path d="M35.4158 59.9611C35.1645 59.4587 35.4158 59.4587 35.4158 59.2074C35.4158 59.2074 34.4107 57.6999 31.8984 61.2173C32.4009 61.2173 33.4059 61.971 33.4059 62.2223C34.1594 60.9659 34.6621 60.4635 35.4158 59.9611Z" fill="#CED6E0"/>
    <path d="M55.7667 10.2141C55.5154 11.2192 54.5106 11.7216 54.2593 11.7216C50.993 12.4753 50.2392 8.70665 50.7419 8.45532C50.7416 8.45532 55.5154 9.71148 55.7667 10.2141Z" fill="#344A5E"/>
    <path d="M50.4906 8.45556C50.4906 8.45556 51.2443 8.20424 52.5005 7.95315C54.5104 7.45074 56.5205 7.70183 58.2791 8.70689C58.2791 8.70689 57.5253 1.67192 49.2342 2.42565C46.973 4.68687 47.7267 6.44567 50.4906 8.45556Z" fill="#415A6B"/>
    <path d="M33.9083 54.6848C32.6522 57.4484 31.8984 61.2171 31.8984 61.2171C33.9083 59.961 39.1845 57.4484 40.9433 58.9559C40.9433 58.9559 41.697 57.6997 42.9532 57.1971C40.9433 56.192 53.2542 42.6247 55.013 30.5649C55.013 30.5651 45.4655 27.8013 33.9083 54.6848Z" fill="#A2A2A2"/>
    <path d="M54.259 11.4704C54.259 12.7265 55.264 25.7914 55.264 25.7914C55.264 26.7965 55.5154 27.8013 55.264 28.8064C55.0127 32.3237 54.0079 35.59 52.2491 38.3536C50.4903 41.3686 48.2291 45.1373 46.9729 44.6349C43.958 43.1274 45.7168 34.3339 46.2192 32.5751C45.4654 33.8312 42.4505 34.0825 41.4454 32.8264C40.4403 31.5702 40.4403 30.0627 40.4403 28.5553C40.189 29.0577 39.9379 30.8165 39.4353 31.0678C36.9227 32.324 35.6666 26.043 36.9227 23.2791L32.6516 22.0229L32.4003 19.7617C31.6466 14.988 31.8979 17.2492 31.8979 14.2342C32.1492 9.96312 33.9078 5.69178 37.1741 2.92815C44.7115 -3.35309 49.7363 2.42573 49.7363 2.42573C47.9775 4.68695 50.7414 8.45564 50.7414 8.45564C50.7414 8.45564 50.4903 11.7217 54.259 11.4704Z" fill="#505050"/>
    <path d="M15.8184 53.1773C15.8184 53.1773 7.02482 65.7396 12.5521 61.7198C18.0793 57.7 34.6618 38.3539 37.1741 33.0777C38.6816 29.8114 38.6816 25.7916 37.1741 22.274C42.4503 33.3288 30.6418 17.5003 27.6269 21.269L27.3755 21.5203C25.1143 24.2839 23.1044 27.5502 21.848 31.0676C19.0844 37.3488 13.3056 51.4185 16.5719 46.1424C16.5721 46.1424 13.3058 55.6896 15.8184 53.1773Z" fill="#505050"/>
    <path d="M37.4254 22.274C35.6666 18.5053 30.3904 18.0029 27.8781 21.269L27.6268 21.5203C25.3656 24.2839 23.3557 27.5502 22.0993 31.0676C19.3357 37.3488 13.5568 51.4185 16.8231 46.1424C16.8231 46.1424 16.8231 46.1424 16.8231 46.3937C17.0744 46.1424 17.0744 45.8913 17.3255 45.6399C17.3255 46.3937 16.5718 47.3987 17.3255 47.9012C18.0793 48.4036 18.833 47.1474 19.3354 46.1424C19.3354 46.3937 19.3354 46.6448 19.5868 46.8961C19.8381 47.1474 20.3405 46.8961 20.5918 46.6448C20.8431 46.3934 21.0942 45.891 21.3456 45.6397C21.5969 45.3884 21.5969 44.886 21.848 44.6346C21.5966 44.886 21.848 45.3884 22.0993 45.3884C22.3506 45.6397 22.853 45.3884 23.1044 45.1371C23.3557 44.8857 23.6068 44.3833 23.6068 44.132C23.6068 43.8807 23.8581 43.6296 23.8581 43.3783C23.8581 43.6296 23.8581 43.8807 24.1094 43.8807C24.3607 44.132 24.8632 43.8807 25.1145 43.6293C26.1195 42.8756 26.8733 41.8705 27.3757 40.8657C27.1244 41.3681 27.1244 41.6195 27.1244 42.1219C27.1244 42.6243 27.3757 42.8756 27.8781 43.1269C28.3805 43.1269 28.8832 42.6245 29.1343 42.1219C29.6367 41.3681 30.1393 40.6144 30.3904 39.8607C30.3904 40.3631 29.888 41.1168 30.1391 41.3681C30.6415 41.8705 31.3952 40.6144 31.8979 40.3631C34.4104 37.0968 36.4203 34.3332 37.1741 32.8257C38.9329 29.8114 38.9329 25.5401 37.4254 22.274Z" fill="#141615"/>
    <path d="M47.395 6.88876C46.8318 5.93224 45.4059 5.72761 44.2101 6.4317C43.0144 7.13579 42.5017 8.48197 43.0649 9.43849C43.6281 10.395 45.054 10.5996 46.2498 9.89555C47.4455 9.19146 47.9582 7.84527 47.395 6.88876Z" fill="#E8EAE9"/>
    <path d="M46.0754 7.7247C45.7234 7.12689 44.8564 6.98473 44.139 7.40717C43.4216 7.82961 43.1254 8.65668 43.4774 9.25449C43.8294 9.8523 44.6963 9.99446 45.4137 9.57202C46.1312 9.14958 46.4274 8.32251 46.0754 7.7247Z" fill="#CED6E0"/>
    <path d="M44.4606 9.46044C45.0157 9.46044 45.4657 9.01046 45.4657 8.45538C45.4657 7.9003 45.0157 7.45032 44.4606 7.45032C43.9055 7.45032 43.4556 7.9003 43.4556 8.45538C43.4556 9.01046 43.9055 9.46044 44.4606 9.46044Z" fill="#344A5E"/>
    <path d="M44.2091 8.20431C44.3479 8.20431 44.4604 8.09179 44.4604 7.95299C44.4604 7.81418 44.3479 7.70166 44.2091 7.70166C44.0703 7.70166 43.9578 7.81418 43.9578 7.95299C43.9578 8.09179 44.0703 8.20431 44.2091 8.20431Z" fill="white"/>
    <path d="M2 65.9909V75.2869L31.8982 70.5134V61.2172L2 65.9909Z" fill="#141615"/>
    <path d="M33.6571 27.299C30.1397 24.0328 14.3112 59.4585 11.2962 69.006C9.78875 71.7696 -0.261178 93.3768 18.0799 74.0309L31.8985 61.2173C31.8985 61.2173 32.9036 60.4636 34.4111 59.4585C36.4209 58.2024 38.6822 58.2024 40.9434 58.9561C40.9434 58.9561 41.6971 57.6999 42.9533 57.1973C41.1945 55.1874 36.1696 54.9361 55.0131 25.7916L48.7319 13.4804L50.4907 8.45557C50.4907 8.45557 47.4757 4.93821 49.4856 2.67699C49.4856 2.67699 46.2863 -2.78124 39 3.5C35.7337 6.01254 34 8.72891 34 13C34 16.2663 31.6469 14.9881 32.4007 19.7617L33.6571 27.299Z" fill="#E8EAE9"/>
    <path d="M56.7716 57.1971L2 65.9909V75.2869L56.7716 66.7447V57.1971Z" fill="#141615"/>
    <path d="M43.4556 59.7097C43.4556 59.7097 40.6919 61.4685 39.4355 60.9659C39.4355 60.9659 37.4256 62.222 37.6767 60.7145C37.6767 60.7145 38.1792 60.4632 37.9281 59.9608L41.1943 59.4584L43.4556 59.7097Z" fill="#454545"/>
    <path d="M37.6772 60.7147C37.6772 60.7147 38.1796 60.4634 37.9285 59.961C37.9285 59.961 36.6723 59.7096 36.1697 60.966C36.1697 60.9658 37.1745 60.4634 37.6772 60.7147Z" fill="#FFD15C"/>
    <path d="M49.4856 64.7346C49.4856 64.7346 49.988 63.9808 50.4907 63.9808C50.4907 63.9808 51.4957 65.237 50.2393 66.4934C50.2393 66.2421 50.2393 64.9859 49.4856 64.7346Z" fill="#FFD15C"/>
    <path d="M46.9731 63.7298C46.9731 63.7298 47.4756 62.9761 47.9782 62.9761C47.9782 62.9761 48.9833 64.2322 47.7269 65.4886C47.7269 65.4884 47.7269 63.9809 46.9731 63.7298Z" fill="#FFD15C"/>
    <path d="M42.7021 59.7097C42.7021 59.7097 43.2045 60.2122 43.9583 60.2122C43.9583 60.2122 44.4607 61.4683 45.4658 61.7196C45.4658 61.7196 46.9732 64.7346 47.4757 63.9808C47.4757 63.4784 47.9781 62.9758 48.2294 62.9758C48.2294 62.9758 46.7219 60.4632 45.9682 59.7095C45.9682 59.7095 48.2294 62.222 48.7318 63.2269C48.7318 63.2269 48.7318 64.483 49.7369 64.7343C49.7369 64.7343 50.2393 63.9806 50.993 64.2319C50.993 64.2319 47.7267 58.4533 43.2043 57.197L40.4407 56.1919V58.4531C40.692 58.4531 41.6968 59.2069 40.9431 59.4582L40.4407 59.9606L42.7021 59.7097Z" fill="#454545"/>
    <path d="M39.1846 66.2421C39.1846 66.2421 39.687 65.4884 40.1896 65.4884C40.1896 65.4884 41.1947 66.7446 39.6872 68.0009C39.687 68.0009 39.9383 66.7448 39.1846 66.2421Z" fill="#FFD15C"/>
    <path d="M36.4207 65.2371C36.4207 65.2371 36.9231 64.4834 37.4257 64.4834C37.4257 64.4834 38.4308 65.7396 36.9233 66.9959C37.1744 66.9957 37.4257 65.7396 36.4207 65.2371Z" fill="#FFD15C"/>
    <path d="M32.401 61.2171C32.401 61.2171 33.4061 61.4684 33.4061 61.7195C33.4061 61.7195 33.9085 62.9756 34.9135 63.2269C34.9135 63.2269 36.1697 66.2419 36.9234 65.4882C36.9234 64.9858 37.4258 64.4831 37.6772 64.7344C37.4258 63.9807 36.9234 62.9756 36.1697 62.2219C36.1697 62.2219 36.6721 62.7243 37.1748 63.478C37.6772 64.2318 37.9285 64.9855 38.4309 65.7393C38.4309 65.9906 38.6822 66.493 39.436 66.493C39.436 66.493 39.9384 65.7393 40.6921 65.9906C40.6921 65.9906 37.6772 59.9607 33.1547 58.7045L30.6422 57.4484V59.7096C30.8935 59.7096 31.8983 60.7146 31.1446 60.7146L30.3909 61.2171H32.401Z" fill="#454545"/>
    <path d="M35.4158 59.9611C35.1645 59.4587 35.4158 59.4587 35.4158 59.2074C35.4158 59.2074 34.4107 57.6999 31.8984 61.2173C32.4009 61.2173 33.4059 61.971 33.4059 62.2223C34.1594 60.9659 34.6621 60.4635 35.4158 59.9611Z" fill="#CED6E0"/>
    <path d="M55.767 10.2141C55.5157 11.2192 54.5108 11.7216 54.2595 11.7216C50.9932 12.4753 50.2395 8.70665 50.7421 8.45532C50.7419 8.45532 55.5157 9.71148 55.767 10.2141Z" fill="#344A5E"/>
    <path d="M50.4906 8.45556C50.4906 8.45556 51.2443 8.20424 52.5005 7.95315C54.5104 7.45074 56.5205 7.70183 58.2791 8.70689C58.2791 8.70689 57.5253 1.67192 49.2342 2.42565C46.973 4.68687 47.7267 6.44567 50.4906 8.45556Z" fill="#415A6B"/>
    <path d="M33.9083 54.6848C32.6522 57.4484 31.8984 61.2171 31.8984 61.2171C33.9083 59.961 39.1845 57.4484 40.9433 58.9559C40.9433 58.9559 41.697 57.6997 42.9532 57.1971C40.9433 56.192 53.2542 42.6247 55.013 30.5649C55.013 30.5651 45.4655 27.8013 33.9083 54.6848Z" fill="#A2A2A2"/>
    <path d="M54.259 11.4704C54.259 12.7265 55.264 25.7914 55.264 25.7914C55.264 26.7965 55.5154 27.8013 55.264 28.8064C55.0127 32.3237 54.0079 35.59 52.2491 38.3536C50.4903 41.3686 48.2291 45.1373 46.9729 44.6349C43.958 43.1274 45.7168 34.3339 46.2192 32.5751C45.4654 33.8312 42.4505 34.0825 41.4454 32.8264C40.4403 31.5702 40.4403 30.0627 40.4403 28.5553C40.189 29.0577 39.9379 30.8165 39.4353 31.0678C36.9227 32.324 35.6666 26.043 36.9227 23.2791L32.6516 22.0229L32.4003 19.7617C31.6466 14.988 31.8979 17.2492 31.8979 14.2342C32.1492 9.96312 33.9078 5.69178 37.1741 2.92815C44.7115 -3.35309 49.7363 2.42573 49.7363 2.42573C47.9775 4.68695 50.7414 8.45564 50.7414 8.45564C50.7414 8.45564 50.4903 11.7217 54.259 11.4704Z" fill="#505050"/>
    <path d="M15.8184 53.1773C15.8184 53.1773 7.02482 65.7396 12.5521 61.7198C18.0793 57.7 34.6618 38.3539 37.1741 33.0777C38.6816 29.8114 38.6816 25.7916 37.1741 22.274C42.4503 33.3288 30.6418 17.5003 27.6269 21.269L27.3755 21.5203C25.1143 24.2839 23.1044 27.5502 21.848 31.0676C19.0844 37.3488 13.3056 51.4185 16.5719 46.1424C16.5721 46.1424 13.3058 55.6896 15.8184 53.1773Z" fill="#505050"/>
    <path d="M37.4254 22.274C35.6666 18.5053 30.3904 18.0029 27.8781 21.269L27.6268 21.5203C25.3656 24.2839 23.3557 27.5502 22.0993 31.0676C19.3357 37.3488 13.5568 51.4185 16.8231 46.1424C16.8231 46.1424 16.8231 46.1424 16.8231 46.3937C17.0744 46.1424 17.0744 45.8913 17.3255 45.6399C17.3255 46.3937 16.5718 47.3987 17.3255 47.9012C18.0793 48.4036 18.833 47.1474 19.3354 46.1424C19.3354 46.3937 19.3354 46.6448 19.5868 46.8961C19.8381 47.1474 20.3405 46.8961 20.5918 46.6448C20.8431 46.3934 21.0942 45.891 21.3456 45.6397C21.5969 45.3884 21.5969 44.886 21.848 44.6346C21.5966 44.886 21.848 45.3884 22.0993 45.3884C22.3506 45.6397 22.853 45.3884 23.1044 45.1371C23.3557 44.8857 23.6068 44.3833 23.6068 44.132C23.6068 43.8807 23.8581 43.6296 23.8581 43.3783C23.8581 43.6296 23.8581 43.8807 24.1094 43.8807C24.3607 44.132 24.8632 43.8807 25.1145 43.6293C26.1195 42.8756 26.8733 41.8705 27.3757 40.8657C27.1244 41.3681 27.1244 41.6195 27.1244 42.1219C27.1244 42.6243 27.3757 42.8756 27.8781 43.1269C28.3805 43.1269 28.8832 42.6245 29.1343 42.1219C29.6367 41.3681 30.1393 40.6144 30.3904 39.8607C30.3904 40.3631 29.888 41.1168 30.1391 41.3681C30.6415 41.8705 31.3952 40.6144 31.8979 40.3631C34.4104 37.0968 36.4203 34.3332 37.1741 32.8257C38.9329 29.8114 38.9329 25.5401 37.4254 22.274Z" fill="#141615"/>
    <path d="M47.395 6.88876C46.8318 5.93224 45.4059 5.72761 44.2101 6.4317C43.0144 7.13579 42.5017 8.48197 43.0649 9.43849C43.6281 10.395 45.054 10.5996 46.2498 9.89555C47.4455 9.19146 47.9582 7.84527 47.395 6.88876Z" fill="#E8EAE9"/>
    <path d="M46.0756 7.7247C45.7236 7.12689 44.8567 6.98473 44.1392 7.40717C43.4218 7.82961 43.1256 8.65668 43.4776 9.25449C43.8296 9.8523 44.6966 9.99446 45.414 9.57202C46.1314 9.14958 46.4276 8.32251 46.0756 7.7247Z" fill="#CED6E0"/>
    <path d="M44.4606 9.46044C45.0157 9.46044 45.4657 9.01046 45.4657 8.45538C45.4657 7.9003 45.0157 7.45032 44.4606 7.45032C43.9055 7.45032 43.4556 7.9003 43.4556 8.45538C43.4556 9.01046 43.9055 9.46044 44.4606 9.46044Z" fill="#344A5E"/>
    <path d="M44.2091 8.20431C44.3479 8.20431 44.4604 8.09179 44.4604 7.95299C44.4604 7.81418 44.3479 7.70166 44.2091 7.70166C44.0703 7.70166 43.9578 7.81418 43.9578 7.95299C43.9578 8.09179 44.0703 8.20431 44.2091 8.20431Z" fill="white"/>
    <path d="M2 65.9909V75.2869L31.8982 70.5134V61.2172L2 65.9909Z" fill="#141615"/>
</svg>
