<svg width="50" height="50" viewBox="0 0 50 50" fill="none"
    xmlns="http://www.w3.org/2000/svg">
    <path fill-rule="evenodd" clip-rule="evenodd" d="M25 0C11.1929 0 0 11.1929 0 25C0 38.8071 11.1929 50 25 50C38.8071 50 50 38.8071 50 25C50 11.1929 38.8071 0 25 0ZM19.5034 11.7472C20.9256 11.6825 21.3801 11.6667 25.0012 11.6667H24.9971C28.6194 11.6667 29.0721 11.6825 30.4944 11.7472C31.9139 11.8122 32.8832 12.037 33.7333 12.3667C34.611 12.707 35.3527 13.1625 36.0944 13.9042C36.8361 14.6453 37.2917 15.3892 37.6333 16.2661C37.9611 17.114 38.1861 18.0828 38.2528 19.5023C38.3167 20.9246 38.3333 21.379 38.3333 25.0001C38.3333 28.6212 38.3167 29.0746 38.2528 30.4969C38.1861 31.9157 37.9611 32.8849 37.6333 33.733C37.2917 34.6097 36.8361 35.3535 36.0944 36.0947C35.3535 36.8364 34.6108 37.293 33.7342 37.6336C32.8857 37.9633 31.9157 38.188 30.4964 38.253C29.0741 38.3178 28.621 38.3336 24.9996 38.3336C21.3787 38.3336 20.9246 38.3178 19.5023 38.253C18.0831 38.188 17.114 37.9633 16.2656 37.6336C15.3892 37.293 14.6453 36.8364 13.9045 36.0947C13.163 35.3535 12.7075 34.6097 12.3667 33.7327C12.0372 32.8849 11.8125 31.916 11.7472 30.4966C11.6828 29.0744 11.6667 28.6212 11.6667 25.0001C11.6667 21.379 11.6833 20.9243 11.747 19.502C11.8108 18.0831 12.0358 17.114 12.3664 16.2658C12.708 15.3892 13.1636 14.6453 13.9053 13.9042C14.6465 13.1628 15.3903 12.7072 16.2673 12.3667C17.1151 12.037 18.084 11.8122 19.5034 11.7472Z" fill="white"/>
    <path fill-rule="evenodd" clip-rule="evenodd" d="M23.8051 14.0695C24.0373 14.0692 24.2872 14.0693 24.5568 14.0694L25.0013 14.0695C28.5613 14.0695 28.9833 14.0823 30.3891 14.1462C31.6891 14.2056 32.3946 14.4228 32.8646 14.6053C33.4869 14.847 33.9305 15.136 34.3969 15.6026C34.8636 16.0693 35.1524 16.5138 35.3947 17.136C35.5772 17.6054 35.7947 18.311 35.8539 19.611C35.9177 21.0166 35.9316 21.4388 35.9316 24.9971C35.9316 28.5555 35.9177 28.9777 35.8539 30.3834C35.7944 31.6833 35.5772 32.3889 35.3947 32.8584C35.1531 33.4805 34.8636 33.9237 34.3969 34.39C33.9302 34.8567 33.4871 35.1456 32.8646 35.3873C32.3952 35.5706 31.6891 35.7873 30.3891 35.8467C28.9835 35.9106 28.5613 35.9245 25.0013 35.9245C21.441 35.9245 21.019 35.9106 19.6134 35.8467C18.3134 35.7867 17.6078 35.5695 17.1375 35.387C16.5153 35.1453 16.0709 34.8564 15.6042 34.3897C15.1375 33.923 14.8487 33.4797 14.6064 32.8572C14.4239 32.3878 14.2064 31.6822 14.1472 30.3822C14.0834 28.9767 14.0706 28.5544 14.0706 24.9938C14.0706 21.4332 14.0834 21.0132 14.1472 19.6076C14.2067 18.3076 14.4239 17.6021 14.6064 17.1321C14.8481 16.5098 15.1375 16.0654 15.6042 15.5988C16.0709 15.1321 16.5153 14.8431 17.1375 14.601C17.6075 14.4176 18.3134 14.201 19.6134 14.1412C20.8434 14.0856 21.3201 14.069 23.8051 14.0662V14.0695ZM32.1186 16.2835C31.2352 16.2835 30.5185 16.9993 30.5185 17.8829C30.5185 18.7663 31.2352 19.4829 32.1186 19.4829C33.0019 19.4829 33.7186 18.7663 33.7186 17.8829C33.7186 16.9996 33.0019 16.2829 32.1186 16.2829V16.2835ZM18.154 25.0002C18.154 21.2189 21.2196 18.153 25.001 18.1529C28.7824 18.1529 31.8474 21.2188 31.8474 25.0002C31.8474 28.7817 28.7826 31.8462 25.0013 31.8462C21.2198 31.8462 18.154 28.7817 18.154 25.0002Z" fill="white"/>
    <path d="M25.0014 20.5557C27.4558 20.5557 29.4458 22.5455 29.4458 25.0001C29.4458 27.4546 27.4558 29.4446 25.0014 29.4446C22.5467 29.4446 20.5569 27.4546 20.5569 25.0001C20.5569 22.5455 22.5467 20.5557 25.0014 20.5557Z" fill="white"/>
</svg>
