<svg width="50" height="50" viewBox="0 0 50 50" fill="none" xmlns="http://www.w3.org/2000/svg">
<path fill-rule="evenodd" clip-rule="evenodd" d="M25 0C11.1929 0 0 11.1929 0 25C0 38.8071 11.1929 50 25 50C38.8071 50 50 38.8071 50 25C50 11.1929 38.8071 0 25 0ZM12.0017 20.706H17.6672V37.7287H12.0017V20.706ZM18.0404 15.4403C18.0036 13.7712 16.8101 12.5 14.8719 12.5C12.9338 12.5 11.6667 13.7712 11.6667 15.4403C11.6667 17.0748 12.8964 18.3826 14.7983 18.3826H14.8346C16.8101 18.3826 18.0404 17.0748 18.0404 15.4403ZM31.5761 20.3064C35.3044 20.3064 38.0994 22.7399 38.0994 27.9684L38.0992 37.7287H32.4339V28.6216C32.4339 26.3341 31.614 24.7731 29.563 24.7731C27.9978 24.7731 27.0655 25.8254 26.656 26.8419C26.5062 27.206 26.4695 27.7135 26.4695 28.2223V37.7292H20.8032C20.8032 37.7292 20.8779 22.3039 20.8032 20.7066H26.4695V23.1176C27.2214 21.9585 28.5681 20.3064 31.5761 20.3064Z" fill="white"/>
</svg>
