<svg width="50" height="50" viewBox="0 0 50 50" fill="none" xmlns="http://www.w3.org/2000/svg">
<path fill-rule="evenodd" clip-rule="evenodd" d="M25 0C11.1929 0 0 11.1929 0 25C0 38.8071 11.1929 50 25 50C38.8071 50 50 38.8071 50 25C50 11.1929 38.8071 0 25 0ZM24.3037 21.1854L24.2512 20.3203C24.0939 18.0782 25.4753 16.0303 27.6612 15.2359C28.4656 14.9534 29.8296 14.9181 30.7215 15.1653C31.0711 15.2712 31.7357 15.6243 32.2078 15.9421L33.0647 16.5247L34.009 16.2246C34.5336 16.0656 35.2331 15.8008 35.5478 15.6243C35.8451 15.4654 36.1074 15.3771 36.1074 15.4301C36.1074 15.7302 35.4604 16.7542 34.9183 17.3191C34.1839 18.1135 34.3937 18.1842 35.8801 17.6545C36.772 17.3544 36.7894 17.3544 36.6146 17.6898C36.5096 17.8664 35.9675 18.4843 35.3904 19.0492C34.4111 20.0202 34.3587 20.1261 34.3587 20.9382C34.3587 22.1917 33.7642 24.8045 33.1696 26.2345C32.0679 28.9179 29.7072 31.6896 27.3465 33.0843C24.024 35.044 19.5997 35.5382 15.875 34.3907C14.6334 34.0023 12.5 33.0136 12.5 32.8372C12.5 32.7842 13.147 32.7135 13.934 32.6959C15.5777 32.6606 17.2215 32.2016 18.6204 31.3895L19.5648 30.8246L18.4805 30.4539C16.9417 29.9242 15.5602 28.706 15.2105 27.5585C15.1055 27.1878 15.1405 27.1701 16.1198 27.1701L17.1341 27.1525L16.2772 26.7465C15.2629 26.2345 14.3361 25.3694 13.8815 24.4867C13.5492 23.8511 13.1296 22.2446 13.252 22.121C13.2869 22.0681 13.6542 22.174 14.0739 22.3152C15.2804 22.7566 15.4378 22.6506 14.7383 21.9092C13.4268 20.5675 13.0246 18.5725 13.6542 16.6835L13.9515 15.8361L15.1055 16.9836C17.4664 19.2964 20.2468 20.6734 23.4294 21.0795L24.3037 21.1854Z" fill="white"/>
</svg>
