<svg width="60" height="60" viewBox="0 0 60 60" fill="none"
    xmlns="http://www.w3.org/2000/svg">
    <g clip-path="url(#clip0_26:2279)">
        <path d="M52.1498 12.4167H29.1045L28.3098 9.9334C27.7947 8.47625 26.8391 7.2154 25.5754 6.32551C24.3118 5.43563 22.8027 4.96077 21.2572 4.96673H7.44982C5.47395 4.96673 3.57902 5.75164 2.18187 7.14878C0.784725 8.54593 -0.000183105 10.4409 -0.000183105 12.4167L-0.000183105 47.1834C-0.000183105 49.1593 0.784725 51.0542 2.18187 52.4513C3.57902 53.8485 5.47395 54.6334 7.44982 54.6334H52.1498C54.1257 54.6334 56.0206 53.8485 57.4178 52.4513C58.8149 51.0542 59.5998 49.1593 59.5998 47.1834V19.8667C59.5998 17.8909 58.8149 15.9959 57.4178 14.5988C56.0206 13.2016 54.1257 12.4167 52.1498 12.4167ZM54.6332 47.1834C54.6332 47.842 54.3715 48.4737 53.9058 48.9394C53.4401 49.4051 52.8084 49.6667 52.1498 49.6667H7.44982C6.7912 49.6667 6.15955 49.4051 5.69383 48.9394C5.22812 48.4737 4.96648 47.842 4.96648 47.1834V12.4167C4.96648 11.7581 5.22812 11.1265 5.69383 10.6607C6.15955 10.195 6.7912 9.9334 7.44982 9.9334H21.2572C21.7778 9.93205 22.2856 10.0944 22.709 10.3974C23.1323 10.7004 23.4497 11.1288 23.6163 11.6221L25.5285 17.3834H52.1498C52.8084 17.3834 53.4401 17.645 53.9058 18.1107C54.3715 18.5765 54.6332 19.2081 54.6332 19.8667V47.1834Z" fill="black"/>
        <path d="M31.7067 20.7078C31.4705 20.4817 31.192 20.3045 30.8872 20.1863C30.2826 19.9379 29.6044 19.9379 28.9998 20.1863C28.695 20.3045 28.4165 20.4817 28.1803 20.7078L20.7303 28.1578C20.2627 28.6254 20 29.2596 20 29.9209C20 30.5823 20.2627 31.2165 20.7303 31.6841C21.1979 32.1517 21.8322 32.4144 22.4935 32.4144C23.1548 32.4144 23.789 32.1517 24.2567 31.6841L27.4602 28.4558V42.3376C27.4602 42.9962 27.7218 43.6279 28.1875 44.0936C28.6532 44.5593 29.2849 44.8209 29.9435 44.8209C30.6021 44.8209 31.2338 44.5593 31.6995 44.0936C32.1652 43.6279 32.4268 42.9962 32.4268 42.3376V28.4558L35.6303 31.6841C35.8612 31.9169 36.1358 32.1016 36.4385 32.2277C36.7411 32.3538 37.0657 32.4187 37.3935 32.4187C37.7213 32.4187 38.0459 32.3538 38.3485 32.2277C38.6511 32.1016 38.9258 31.9169 39.1567 31.6841C39.3894 31.4533 39.5742 31.1786 39.7002 30.876C39.8263 30.5734 39.8912 30.2488 39.8912 29.9209C39.8912 29.5931 39.8263 29.2685 39.7002 28.9659C39.5742 28.6633 39.3894 28.3886 39.1567 28.1578L31.7067 20.7078Z" fill="black"/>
    </g>
    <defs>
        <clipPath id="clip0_26:2279">
            <rect width="59.6" height="59.6" fill="white" transform="translate(-0.00012207)"/>
        </clipPath>
    </defs>
</svg>
